<svg width="17" height="21" viewBox="0 0 17 21" fill="none" xmlns="http://www.w3.org/2000/svg">
<path d="M9 0.75C9 0.551088 8.92098 0.360322 8.78033 0.21967C8.63968 0.0790176 8.44891 0 8.25 0C8.05109 0 7.86032 0.0790176 7.71967 0.21967C7.57902 0.360322 7.5 0.551088 7.5 0.75V1.5H3.9375C3.29103 1.5 2.67105 1.75681 2.21393 2.21393C1.75681 2.67105 1.5 3.29103 1.5 3.9375V8.0625C1.5 8.70897 1.75681 9.32895 2.21393 9.78607C2.67105 10.2432 3.29103 10.5 3.9375 10.5H12.5625C13.209 10.5 13.829 10.2432 14.2861 9.78607C14.7432 9.32895 15 8.70897 15 8.0625V3.9375C15 3.29103 14.7432 2.67105 14.2861 2.21393C13.829 1.75681 13.209 1.5 12.5625 1.5H9V0.75ZM3 3.9375C3 3.42 3.42 3 3.9375 3H12.5625C13.08 3 13.5 3.42 13.5 3.9375V8.0625C13.5 8.58 13.08 9 12.5625 9H3.9375C3.42 9 3 8.58 3 8.0625V3.9375ZM1.5 15.1875C1.5 14.67 1.92 14.25 2.4375 14.25H14.0625C14.58 14.25 15 14.67 15 15.1875V15.525C15 16.5975 14.49 17.5553 13.4085 18.276C12.3045 19.011 10.5907 19.5 8.25 19.5C5.90925 19.5 4.1955 19.011 3.0915 18.276C2.01 17.556 1.5 16.5975 1.5 15.525V15.1875ZM2.4375 12.75C1.79103 12.75 1.17105 13.0068 0.713927 13.4639C0.256807 13.921 0 14.541 0 15.1875V15.525C0 17.1525 0.80775 18.5572 2.25975 19.524C3.69 20.4765 5.7255 21 8.25 21C10.7745 21 12.81 20.4765 14.2402 19.524C15.6922 18.5565 16.5 17.1532 16.5 15.525V15.1875C16.5 14.541 16.2432 13.921 15.7861 13.4639C15.329 13.0068 14.709 12.75 14.0625 12.75H2.4375ZM6.9375 6C6.9375 6.3481 6.79922 6.68194 6.55308 6.92808C6.30694 7.17422 5.9731 7.3125 5.625 7.3125C5.2769 7.3125 4.94306 7.17422 4.69692 6.92808C4.45078 6.68194 4.3125 6.3481 4.3125 6C4.3125 5.6519 4.45078 5.31806 4.69692 5.07192C4.94306 4.82578 5.2769 4.6875 5.625 4.6875C5.9731 4.6875 6.30694 4.82578 6.55308 5.07192C6.79922 5.31806 6.9375 5.6519 6.9375 6ZM10.875 7.3125C11.0474 7.3125 11.218 7.27855 11.3773 7.21259C11.5365 7.14663 11.6812 7.04995 11.8031 6.92808C11.925 6.8062 12.0216 6.66151 12.0876 6.50227C12.1536 6.34303 12.1875 6.17236 12.1875 6C12.1875 5.82764 12.1536 5.65697 12.0876 5.49773C12.0216 5.33849 11.925 5.1938 11.8031 5.07192C11.6812 4.95005 11.5365 4.85337 11.3773 4.78741C11.218 4.72145 11.0474 4.6875 10.875 4.6875C10.5269 4.6875 10.1931 4.82578 9.94692 5.07192C9.70078 5.31806 9.5625 5.6519 9.5625 6C9.5625 6.3481 9.70078 6.68194 9.94692 6.92808C10.1931 7.17422 10.5269 7.3125 10.875 7.3125Z" fill="#FDFDFD"/>
</svg>
