<svg width="24" height="24" viewBox="0 0 24 24" fill="none" xmlns="http://www.w3.org/2000/svg">
<path d="M12.75 2.25C12.75 2.05109 12.671 1.86032 12.5303 1.71967C12.3897 1.57902 12.1989 1.5 12 1.5C11.8011 1.5 11.6103 1.57902 11.4697 1.71967C11.329 1.86032 11.25 2.05109 11.25 2.25V3H7.6875C7.04103 3 6.42105 3.25681 5.96393 3.71393C5.50681 4.17105 5.25 4.79103 5.25 5.4375V9.5625C5.25 10.209 5.50681 10.829 5.96393 11.2861C6.42105 11.7432 7.04103 12 7.6875 12H16.3125C16.959 12 17.579 11.7432 18.0361 11.2861C18.4932 10.829 18.75 10.209 18.75 9.5625V5.4375C18.75 4.79103 18.4932 4.17105 18.0361 3.71393C17.579 3.25681 16.959 3 16.3125 3H12.75V2.25ZM6.75 5.4375C6.75 4.92 7.17 4.5 7.6875 4.5H16.3125C16.83 4.5 17.25 4.92 17.25 5.4375V9.5625C17.25 10.08 16.83 10.5 16.3125 10.5H7.6875C7.17 10.5 6.75 10.08 6.75 9.5625V5.4375ZM5.25 16.6875C5.25 16.17 5.67 15.75 6.1875 15.75H17.8125C18.33 15.75 18.75 16.17 18.75 16.6875V17.025C18.75 18.0975 18.24 19.0553 17.1585 19.776C16.0545 20.511 14.3407 21 12 21C9.65925 21 7.9455 20.511 6.8415 19.776C5.76 19.056 5.25 18.0975 5.25 17.025V16.6875ZM6.1875 14.25C5.54103 14.25 4.92105 14.5068 4.46393 14.9639C4.00681 15.421 3.75 16.041 3.75 16.6875V17.025C3.75 18.6525 4.55775 20.0572 6.00975 21.024C7.44 21.9765 9.4755 22.5 12 22.5C14.5245 22.5 16.56 21.9765 17.9902 21.024C19.4422 20.0565 20.25 18.6532 20.25 17.025V16.6875C20.25 16.041 19.9932 15.421 19.5361 14.9639C19.079 14.5068 18.459 14.25 17.8125 14.25H6.1875ZM10.6875 7.5C10.6875 7.8481 10.5492 8.18194 10.3031 8.42808C10.0569 8.67422 9.7231 8.8125 9.375 8.8125C9.0269 8.8125 8.69306 8.67422 8.44692 8.42808C8.20078 8.18194 8.0625 7.8481 8.0625 7.5C8.0625 7.1519 8.20078 6.81806 8.44692 6.57192C8.69306 6.32578 9.0269 6.1875 9.375 6.1875C9.7231 6.1875 10.0569 6.32578 10.3031 6.57192C10.5492 6.81806 10.6875 7.1519 10.6875 7.5ZM14.625 8.8125C14.7974 8.8125 14.968 8.77855 15.1273 8.71259C15.2865 8.64663 15.4312 8.54995 15.5531 8.42808C15.675 8.3062 15.7716 8.16151 15.8376 8.00227C15.9036 7.84303 15.9375 7.67236 15.9375 7.5C15.9375 7.32764 15.9036 7.15697 15.8376 6.99773C15.7716 6.83849 15.675 6.6938 15.5531 6.57192C15.4312 6.45005 15.2865 6.35337 15.1273 6.28741C14.968 6.22145 14.7974 6.1875 14.625 6.1875C14.2769 6.1875 13.9431 6.32578 13.6969 6.57192C13.4508 6.81806 13.3125 7.1519 13.3125 7.5C13.3125 7.8481 13.4508 8.18194 13.6969 8.42808C13.9431 8.67422 14.2769 8.8125 14.625 8.8125Z" fill="#080808"/>
</svg>
