<svg width="12" height="12" viewBox="0 0 12 12" fill="none" xmlns="http://www.w3.org/2000/svg">
<rect x="0.5" y="0.5" width="11" height="11" rx="1.5" fill="#363636" stroke="#363636"/>
<path d="M9.13749 3.67083C9.25791 3.78467 9.32819 3.94168 9.33288 4.10732C9.33757 4.27297 9.27628 4.4337 9.16249 4.55417L5.62083 8.30417C5.56343 8.36483 5.49445 8.41338 5.41797 8.44694C5.34149 8.4805 5.25906 8.49839 5.17555 8.49956C5.09204 8.50072 5.00914 8.48514 4.93176 8.45372C4.85437 8.42231 4.78406 8.37571 4.72499 8.31666L2.84999 6.44167C2.73959 6.32319 2.67949 6.16648 2.68235 6.00456C2.68521 5.84265 2.7508 5.68816 2.86531 5.57365C2.97982 5.45914 3.13431 5.39354 3.29623 5.39069C3.45814 5.38783 3.61485 5.44793 3.73333 5.55833L5.15416 6.97833L8.25416 3.69583C8.368 3.57541 8.52501 3.50513 8.69065 3.50045C8.8563 3.49576 9.01703 3.55704 9.13749 3.67083Z" fill="white"/>
</svg>
