<svg width="20" height="20" viewBox="0 0 20 20" fill="none" xmlns="http://www.w3.org/2000/svg">
<path d="M5.83325 8.05583C5.83325 7.46639 6.06741 6.90109 6.48421 6.48429C6.90101 6.06749 7.46631 5.83333 8.05575 5.83333H15.2774C15.5693 5.83333 15.8583 5.89082 16.1279 6.00251C16.3976 6.1142 16.6426 6.27791 16.849 6.48429C17.0553 6.69067 17.2191 6.93567 17.3307 7.20532C17.4424 7.47497 17.4999 7.76397 17.4999 8.05583V15.2775C17.4999 15.5694 17.4424 15.8584 17.3307 16.128C17.2191 16.3977 17.0553 16.6427 16.849 16.849C16.6426 17.0554 16.3976 17.2191 16.1279 17.3308C15.8583 17.4425 15.5693 17.5 15.2774 17.5H8.05575C7.76389 17.5 7.47488 17.4425 7.20524 17.3308C6.93559 17.2191 6.69059 17.0554 6.48421 16.849C6.27783 16.6427 6.11412 16.3977 6.00243 16.128C5.89074 15.8584 5.83325 15.5694 5.83325 15.2775V8.05583Z" stroke="white" stroke-width="2" stroke-linecap="round" stroke-linejoin="round"/>
<path d="M3.34333 13.9475C3.0875 13.8021 2.87471 13.5916 2.72658 13.3374C2.57846 13.0832 2.50028 12.7942 2.5 12.5V4.16667C2.5 3.25 3.25 2.5 4.16667 2.5H12.5C13.125 2.5 13.465 2.82083 13.75 3.33333" stroke="white" stroke-width="2" stroke-linecap="round" stroke-linejoin="round"/>
</svg>
