<svg width="13" height="12" viewBox="0 0 13 12" fill="none" xmlns="http://www.w3.org/2000/svg">
<path fill-rule="evenodd" clip-rule="evenodd" d="M9.42405 5.7272C9.31155 5.61484 9.15905 5.55173 9.00005 5.55173C8.84105 5.55173 8.68855 5.61484 8.57605 5.7272L7.00005 7.3032V1.4C7.00005 1.24087 6.93683 1.08826 6.82431 0.975739C6.71179 0.863217 6.55918 0.800003 6.40005 0.800003C6.24092 0.800003 6.08831 0.863217 5.97578 0.975739C5.86326 1.08826 5.80005 1.24087 5.80005 1.4V7.3032L4.22405 5.7272C4.11031 5.62122 3.95987 5.56352 3.80443 5.56626C3.64899 5.56901 3.50068 5.63198 3.39075 5.74191C3.28082 5.85184 3.21785 6.00014 3.21511 6.15559C3.21237 6.31103 3.27006 6.46146 3.37605 6.5752L5.97605 9.1752L6.40005 9.6L6.82405 9.176L9.42405 6.576C9.4798 6.52028 9.52403 6.45412 9.55421 6.3813C9.58439 6.30848 9.59992 6.23043 9.59992 6.1516C9.59992 6.07278 9.58439 5.99472 9.55421 5.9219C9.52403 5.84908 9.4798 5.78292 9.42405 5.7272ZM2.00005 7.8C2.00005 7.72121 1.98453 7.64319 1.95438 7.57039C1.92422 7.4976 1.88003 7.43145 1.82431 7.37574C1.7686 7.32002 1.70245 7.27583 1.62966 7.24568C1.55686 7.21552 1.47884 7.2 1.40005 7.2C1.32126 7.2 1.24323 7.21552 1.17044 7.24568C1.09764 7.27583 1.0315 7.32002 0.975785 7.37574C0.92007 7.43145 0.875874 7.4976 0.845721 7.57039C0.815568 7.64319 0.800049 7.72121 0.800049 7.8V10.4C0.800049 10.8243 0.96862 11.2313 1.26868 11.5314C1.56874 11.8314 1.9757 12 2.40005 12H10.4C10.8244 12 11.2314 11.8314 11.5314 11.5314C11.8315 11.2313 12 10.8243 12 10.4V7.8C12 7.64087 11.9368 7.48826 11.8243 7.37574C11.7118 7.26322 11.5592 7.2 11.4 7.2C11.2409 7.2 11.0883 7.26322 10.9758 7.37574C10.8633 7.48826 10.8 7.64087 10.8 7.8V10.4C10.8 10.5061 10.7579 10.6078 10.6829 10.6828C10.6079 10.7579 10.5061 10.8 10.4 10.8H2.40005C2.29396 10.8 2.19222 10.7579 2.11721 10.6828C2.04219 10.6078 2.00005 10.5061 2.00005 10.4V7.8Z" fill="#FDFDFD"/>
</svg>
