<svg width="20" height="20" viewBox="0 0 20 20" fill="none" xmlns="http://www.w3.org/2000/svg">
<path d="M15.0001 2.5H12.5001C12.0398 2.5 11.6667 2.8731 11.6667 3.33333V16.6667C11.6667 17.1269 12.0398 17.5 12.5001 17.5H15.0001C15.4603 17.5 15.8334 17.1269 15.8334 16.6667V3.33333C15.8334 2.8731 15.4603 2.5 15.0001 2.5Z" stroke="white" stroke-width="2" stroke-linecap="round" stroke-linejoin="round"/>
<path d="M7.50008 2.5H5.00008C4.53984 2.5 4.16675 2.8731 4.16675 3.33333V16.6667C4.16675 17.1269 4.53984 17.5 5.00008 17.5H7.50008C7.96032 17.5 8.33341 17.1269 8.33341 16.6667V3.33333C8.33341 2.8731 7.96032 2.5 7.50008 2.5Z" stroke="white" stroke-width="2" stroke-linecap="round" stroke-linejoin="round"/>
</svg>
