<svg width="24" height="24" viewBox="0 0 24 24" fill="none" xmlns="http://www.w3.org/2000/svg">
<path fill-rule="evenodd" clip-rule="evenodd" d="M5 16.347V7.584C5 5.379 7.299 3.927 9.29 4.875L18.053 9.048C20.286 10.111 20.346 13.268 18.155 14.414L9.392 19.004C7.395 20.052 5 18.602 5 16.347ZM7 7.584V16.347C6.99997 16.5191 7.04434 16.6882 7.12882 16.8381C7.2133 16.988 7.33503 17.1136 7.48224 17.2027C7.62945 17.2918 7.79716 17.3414 7.96914 17.3467C8.14113 17.352 8.31158 17.3128 8.464 17.233L17.227 12.643C17.3916 12.5568 17.529 12.4265 17.6237 12.2667C17.7184 12.1068 17.7667 11.9238 17.7632 11.738C17.7596 11.5522 17.7044 11.3711 17.6037 11.215C17.503 11.0588 17.3608 10.9338 17.193 10.854L8.43 6.681C8.27756 6.60839 8.10921 6.57557 7.94066 6.58559C7.77211 6.59561 7.60884 6.64814 7.46607 6.7383C7.32331 6.82845 7.20569 6.95328 7.12419 7.10116C7.0427 7.24904 6.99997 7.41515 7 7.584Z" fill="white"/>
</svg>
