<svg width="16" height="16" viewBox="0 0 16 16" fill="none" xmlns="http://www.w3.org/2000/svg">
<path d="M7.3335 8.66666H4.00016C3.81128 8.66666 3.65305 8.60266 3.5255 8.47466C3.39794 8.34666 3.33394 8.18844 3.3335 8C3.33305 7.81155 3.39705 7.65333 3.5255 7.52533C3.65394 7.39733 3.81216 7.33333 4.00016 7.33333H7.3335V4C7.3335 3.81111 7.3975 3.65289 7.5255 3.52533C7.6535 3.39778 7.81172 3.33377 8.00016 3.33333C8.18861 3.33289 8.34705 3.39689 8.4755 3.52533C8.60394 3.65377 8.66772 3.812 8.66683 4V7.33333H12.0002C12.1891 7.33333 12.3475 7.39733 12.4755 7.52533C12.6035 7.65333 12.6673 7.81155 12.6668 8C12.6664 8.18844 12.6024 8.34689 12.4748 8.47533C12.3473 8.60377 12.1891 8.66755 12.0002 8.66666H8.66683V12C8.66683 12.1889 8.60283 12.3473 8.47483 12.4753C8.34683 12.6033 8.18861 12.6671 8.00016 12.6667C7.81172 12.6662 7.6535 12.6022 7.5255 12.4747C7.3975 12.3471 7.3335 12.1889 7.3335 12V8.66666Z" fill="white"/>
</svg>
