<svg width="20" height="20" viewBox="0 0 20 20" fill="none" xmlns="http://www.w3.org/2000/svg">
<path d="M2.5 4.16667C2.5 3.72464 2.67559 3.30072 2.98816 2.98816C3.30072 2.67559 3.72464 2.5 4.16667 2.5H13.8217C14.2637 2.50009 14.6875 2.67575 15 2.98833L17.2558 5.24417C17.4121 5.40041 17.5 5.61234 17.5 5.83333V15.8333C17.5 16.2754 17.3244 16.6993 17.0118 17.0118C16.6993 17.3244 16.2754 17.5 15.8333 17.5H4.16667C3.72464 17.5 3.30072 17.3244 2.98816 17.0118C2.67559 16.6993 2.5 16.2754 2.5 15.8333V4.16667ZM7.5 15.8333H12.5V10.8333H7.5V15.8333ZM14.1667 15.8333H15.8333V6.17833L14.1667 4.51167V5.83333C14.1667 6.27536 13.9911 6.69928 13.6785 7.01184C13.3659 7.3244 12.942 7.5 12.5 7.5H7.5C7.05797 7.5 6.63405 7.3244 6.32149 7.01184C6.00893 6.69928 5.83333 6.27536 5.83333 5.83333V4.16667H4.16667V15.8333H5.83333V10.8333C5.83333 10.3913 6.00893 9.96738 6.32149 9.65482C6.63405 9.34226 7.05797 9.16667 7.5 9.16667H12.5C12.942 9.16667 13.3659 9.34226 13.6785 9.65482C13.9911 9.96738 14.1667 10.3913 14.1667 10.8333V15.8333ZM7.5 4.16667V5.83333H12.5V4.16667H7.5Z" fill="black"/>
</svg>
