<svg width="20" height="20" viewBox="0 0 20 20" fill="none" xmlns="http://www.w3.org/2000/svg">
<path d="M10 12.5C11.3807 12.5 12.5 11.3807 12.5 10C12.5 8.61929 11.3807 7.5 10 7.5C8.61929 7.5 7.5 8.61929 7.5 10C7.5 11.3807 8.61929 12.5 10 12.5Z" stroke="white" stroke-width="1.5"/>
<path d="M11.4707 1.79333C11.1649 1.66667 10.7766 1.66667 9.99989 1.66667C9.22322 1.66667 8.83489 1.66667 8.52905 1.79333C8.3267 1.8771 8.14285 1.99991 7.98799 2.15477C7.83313 2.30963 7.71032 2.49349 7.62655 2.69583C7.54989 2.88167 7.51905 3.09917 7.50739 3.415C7.50196 3.64328 7.43872 3.86644 7.32359 4.06363C7.20845 4.26082 7.04518 4.42558 6.84905 4.5425C6.64973 4.65398 6.42538 4.71306 6.197 4.71423C5.96862 4.71539 5.74368 4.6586 5.54322 4.54917C5.26322 4.40083 5.06072 4.31917 4.85989 4.2925C4.42182 4.23489 3.9788 4.35359 3.62822 4.6225C3.36655 4.825 3.17155 5.16083 2.78322 5.83333C2.39489 6.50583 2.19989 6.84167 2.15739 7.17083C2.12875 7.38788 2.14315 7.60844 2.19978 7.81991C2.2564 8.03139 2.35413 8.22964 2.48739 8.40333C2.61072 8.56333 2.78322 8.6975 3.05072 8.86583C3.44489 9.11333 3.69822 9.535 3.69822 10C3.69822 10.465 3.44489 10.8867 3.05072 11.1333C2.78322 11.3025 2.60989 11.4367 2.48739 11.5967C2.35413 11.7704 2.2564 11.9686 2.19978 12.1801C2.14315 12.3916 2.12875 12.6121 2.15739 12.8292C2.20072 13.1575 2.39489 13.4942 2.78239 14.1667C3.17155 14.8392 3.36572 15.175 3.62822 15.3775C3.80192 15.5108 4.00017 15.6085 4.21164 15.6651C4.42312 15.7217 4.64368 15.7361 4.86072 15.7075C5.06072 15.6808 5.26322 15.5992 5.54322 15.4508C5.74368 15.3414 5.96862 15.2846 6.197 15.2858C6.42538 15.2869 6.64973 15.346 6.84905 15.4575C7.25155 15.6908 7.49072 16.12 7.50739 16.585C7.51905 16.9017 7.54905 17.1183 7.62655 17.3042C7.71032 17.5065 7.83313 17.6904 7.98799 17.8452C8.14285 18.0001 8.3267 18.1229 8.52905 18.2067C8.83489 18.3333 9.22322 18.3333 9.99989 18.3333C10.7766 18.3333 11.1649 18.3333 11.4707 18.2067C11.6731 18.1229 11.8569 18.0001 12.0118 17.8452C12.1666 17.6904 12.2895 17.5065 12.3732 17.3042C12.4499 17.1183 12.4807 16.9017 12.4924 16.585C12.5091 16.12 12.7482 15.69 13.1507 15.4575C13.35 15.346 13.5744 15.2869 13.8028 15.2858C14.0312 15.2846 14.2561 15.3414 14.4566 15.4508C14.7366 15.5992 14.9391 15.6808 15.1391 15.7075C15.3561 15.7361 15.5767 15.7217 15.7881 15.6651C15.9996 15.6085 16.1979 15.5108 16.3716 15.3775C16.6341 15.1758 16.8282 14.8392 17.2166 14.1667C17.6049 13.4942 17.7999 13.1583 17.8424 12.8292C17.871 12.6121 17.8566 12.3916 17.8 12.1801C17.7434 11.9686 17.6456 11.7704 17.5124 11.5967C17.3891 11.4367 17.2166 11.3025 16.9491 11.1342C16.754 11.0153 16.5923 10.849 16.479 10.6506C16.3658 10.4522 16.3047 10.2284 16.3016 10C16.3016 9.535 16.5549 9.11333 16.9491 8.86667C17.2166 8.6975 17.3899 8.56333 17.5124 8.40333C17.6456 8.22964 17.7434 8.03139 17.8 7.81991C17.8566 7.60844 17.871 7.38788 17.8424 7.17083C17.7991 6.8425 17.6049 6.50583 17.2174 5.83333C16.8282 5.16083 16.6341 4.825 16.3716 4.6225C16.1979 4.48924 15.9996 4.39151 15.7881 4.33489C15.5767 4.27827 15.3561 4.26386 15.1391 4.2925C14.9391 4.31917 14.7366 4.40083 14.4557 4.54917C14.2554 4.65845 14.0306 4.71516 13.8024 4.714C13.5741 4.71283 13.3499 4.65383 13.1507 4.5425C12.9546 4.42558 12.7913 4.26082 12.6762 4.06363C12.5611 3.86644 12.4978 3.64328 12.4924 3.415C12.4807 3.09833 12.4507 2.88167 12.3732 2.69583C12.2895 2.49349 12.1666 2.30963 12.0118 2.15477C11.8569 1.99991 11.6731 1.8771 11.4707 1.79333Z" stroke="white" stroke-width="1.5"/>
</svg>
